<?xml version="1.0" encoding="UTF-8" standalone="no"?>
<!-- Created with Inkscape (http://www.inkscape.org/) -->

<svg
   width="48"
   height="48"
   viewBox="0 0 12.7 12.7"
   version="1.1"
   id="svg1"
   inkscape:version="1.4 (e7c3feb100, 2024-10-09)"
   sodipodi:docname="favicon2.svg"
   xmlns:inkscape="http://www.inkscape.org/namespaces/inkscape"
   xmlns:sodipodi="http://sodipodi.sourceforge.net/DTD/sodipodi-0.dtd"
   xmlns="http://www.w3.org/2000/svg"
   xmlns:svg="http://www.w3.org/2000/svg">
  <sodipodi:namedview
     id="namedview1"
     pagecolor="#505050"
     bordercolor="#eeeeee"
     borderopacity="1"
     inkscape:showpageshadow="0"
     inkscape:pageopacity="0"
     inkscape:pagecheckerboard="0"
     inkscape:deskcolor="#505050"
     inkscape:document-units="mm"
     inkscape:zoom="8.0530018"
     inkscape:cx="27.256917"
     inkscape:cy="33.962491"
     inkscape:window-width="1920"
     inkscape:window-height="1008"
     inkscape:window-x="0"
     inkscape:window-y="0"
     inkscape:window-maximized="1"
     inkscape:current-layer="layer1" />
  <defs
     id="defs1" />
  <g
     inkscape:label="Layer 1"
     inkscape:groupmode="layer"
     id="layer1">
    <circle
       style="fill:#ffffff;stroke:none;stroke-width:0.3;paint-order:stroke markers fill"
       id="path1"
       cx="6.3499999"
       cy="6.3499999"
       r="6.3499999" />
    <path
       d="m 8.0680081,10.017923 q -0.5774022,0 -0.7856456,-0.2839678 Q 7.0835847,9.4405213 7.0362566,8.9672408 L 6.9226693,7.8976269 Q 6.8848069,7.5284681 6.8469444,7.1119813 6.809082,6.6954945 6.7996164,6.3074045 H 6.7712196 Q 6.6103042,6.7238913 6.4493888,7.0741189 6.2884735,7.4148808 6.0707644,7.8692301 L 5.1052723,9.9232674 H 3.5623779 L 6.420992,4.792907 6.3831296,4.4900075 Q 6.3263359,4.0451238 6.0707644,3.9315365 5.815193,3.8179492 5.4460342,3.8179492 q -0.1609153,0 -0.3028995,0.018931 -0.1325185,0.018931 -0.2271746,0.037863 l 0.2366402,-1.116942 q 0.1325186,-0.028397 0.3312964,-0.047328 0.2082434,-0.028397 0.4448836,-0.028397 0.5395397,0 0.8803017,0.1230529 0.3407619,0.1230529 0.5300741,0.435418 0.1893122,0.3123651 0.2839683,0.8897673 l 0.605799,3.7673126 q 0.094656,0.5868678 0.2366403,0.7667144 0.1419841,0.170381 0.3407619,0.170381 0.1041217,0 0.170381,-0.00947 0.075725,-0.018931 0.1609153,-0.037863 L 8.9104473,9.8759393 Q 8.7873944,9.932733 8.5128917,9.9705954 8.2478546,10.017923 8.0680081,10.017923 Z"
       id="text1"
       style="font-style:italic;font-weight:716;font-size:9.46561px;line-height:1;font-family:Merriweather;-inkscape-font-specification:'Merriweather weight=716 Italic';letter-spacing:0.0417603px;stroke-width:0.0947004;paint-order:stroke markers fill"
       aria-label="λ" />
  </g>
</svg>
